HIERARCHY
ROOT Hips
{
    OFFSET 0.000000 0.000000 0.000000
    CHANNELS 6 Xposition Yposition Zposition Zrotation Xrotation Yrotation
    JOINT Spine
    {
        OFFSET -0.000000 7.236184 0.000000
        CHANNELS 3 Zrotation Xrotation Yrotation
        JOINT Spine1
        {
            OFFSET -0.000000 20.420147 0.000000
            CHANNELS 3 Zrotation Xrotation Yrotation
            JOINT Neck
            {
                OFFSET -0.000000 20.336288 1.848754
                CHANNELS 3 Zrotation Xrotation Yrotation
                JOINT Head
                {
                    OFFSET -0.000000 12.354461 -1.764923
                    CHANNELS 3 Zrotation Xrotation Yrotation
                    End Site
                    {
                        OFFSET -0.000000 22.061537 0.000000
                    }
                }
            }
            JOINT LeftShoulder
            {
                OFFSET 3.573296 18.396038 -0.314103
                CHANNELS 3 Zrotation Xrotation Yrotation
                JOINT LeftArm
                {
                    OFFSET 10.880760 0.000000 0.000000
                    CHANNELS 3 Zrotation Xrotation Yrotation
                    JOINT LeftForeArm
                    {
                        OFFSET 27.185530 0.000000 0.000000
                        CHANNELS 3 Zrotation Xrotation Yrotation
                        JOINT LeftHand
                        {
                            OFFSET 27.825975 0.000000 0.000000
                            CHANNELS 3 Zrotation Xrotation Yrotation
                            End Site
                            {
                                OFFSET 13.236923 0.000000 0.000000
                            }
                        }
                    }
                }
            }
            JOINT RightShoulder
            {
                OFFSET -3.474926 18.396038 -0.314103
                CHANNELS 3 Zrotation Xrotation Yrotation
                JOINT RightArm
                {
                    OFFSET -10.880760 0.000000 0.000000
                    CHANNELS 3 Zrotation Xrotation Yrotation
                    JOINT RightForeArm
                    {
                        OFFSET -27.185530 0.000000 0.000000
                        CHANNELS 3 Zrotation Xrotation Yrotation
                        JOINT RightHand
                        {
                            OFFSET -27.825975 0.000000 0.000000
                            CHANNELS 3 Zrotation Xrotation Yrotation
                            End Site
                            {
                                OFFSET -13.236923 0.000000 0.000000
                            }
                        }
                    }
                }
            }
        }
    }
    JOINT LeftUpLeg
    {
        OFFSET 8.824615 0.000000 0.000000
        CHANNELS 3 Zrotation Xrotation Yrotation
        JOINT LeftLeg
        {
            OFFSET -0.000000 -35.111282 0.000000
            CHANNELS 3 Zrotation Xrotation Yrotation
            JOINT LeftFoot
            {
                OFFSET -0.000000 -42.324711 0.000000
                CHANNELS 3 Zrotation Xrotation Yrotation
                JOINT LeftToeBase
                {
                    OFFSET -0.000000 -5.735999 13.236923
                    CHANNELS 3 Zrotation Xrotation Yrotation
                    End Site
                    {
                        OFFSET -0.000000 0.000000 3.529846
                    }
                }
            }
        }
    }
    JOINT RightUpLeg
    {
        OFFSET -8.824615 0.000000 0.000000
        CHANNELS 3 Zrotation Xrotation Yrotation
        JOINT RightLeg
        {
            OFFSET -0.000000 -35.111282 0.000000
            CHANNELS 3 Zrotation Xrotation Yrotation
            JOINT RightFoot
            {
                OFFSET -0.000000 -42.324711 0.000000
                CHANNELS 3 Zrotation Xrotation Yrotation
                JOINT RightToeBase
                {
                    OFFSET -0.000000 -5.735999 13.236923
                    CHANNELS 3 Zrotation Xrotation Yrotation
                    End Site
                    {
                        OFFSET -0.000000 0.000000 3.529846
                    }
                }
            }
        }
    }
}
MOTION
Frames:    9
Frame Time:    0.008333
-7.156149    81.420486    106.396591    -2.199867    -3.695703    -176.378571    -1.210912    -8.042138    4.608432    0.512730    1.616614    4.686366    -2.684802    10.189811    -7.333188    9.628728    1.324531    -6.222189    16.347294    1.996874    -1.063020    -22.605776    10.872323    -6.760170    4.669729    7.239225    -8.177256    -0.791781    7.607727    -5.442931    -15.974813    0.062647    -2.330487    9.750026    -13.298344    7.494367    -31.007761    -18.488409    49.964077    -6.862147    -4.378873    7.651111    2.631067    -8.193997    -0.059063    -0.298704    17.923645    4.813545    -7.444507    -10.593674    -10.286036    -0.604609    -1.323990    0.671805    -12.268542    -3.301704    -4.770038    2.445412    10.207094    3.089417    5.642098    -6.266557    -9.279603    -1.819464    -1.420042    1.971747    
-7.029099    81.435356    106.381836    -2.222895    -3.670148    -177.015686    -1.413638    -8.051624    4.279888    0.657199    1.529171    4.370638    -2.489626    10.319345    -6.800443    9.394148    1.396780    -5.716966    16.734989    1.488749    -1.179653    -21.671705    9.618943    -6.950777    5.593054    6.695195    -8.527472    -0.976318    7.159810    -5.947210    -15.848071    0.430244    -2.597172    9.620955    -11.998387    6.949166    -30.038115    -17.713442    50.047623    -6.283896    -3.964542    7.162825    2.733537    -7.935104    0.081601    -0.347560    17.682621    5.334873    -7.537862    -10.533383    -10.349464    -0.640915    -1.320669    0.712141    -12.188882    -3.471028    -4.522205    2.430889    10.215709    3.373701    5.562659    -6.245475    -9.201535    -1.834511    -1.392779    1.987977    
-6.899953    81.448326    106.369270    -2.242161    -3.640920    -177.630554    -1.627103    -8.060907    3.950022    0.812251    1.451097    4.054425    -2.291288    10.451264    -6.281492    9.161894    1.475810    -5.225975    17.087925    0.989173    -1.294847    -20.811176    8.354209    -7.187403    6.568583    6.017175    -8.929092    -1.103828    6.589329    -6.450933    -15.672862    0.812498    -2.848479    9.592175    -10.805918    6.455250    -29.055136    -17.012436    50.194794    -5.742375    -3.624023    6.685545    2.837978    -7.687683    0.217659    -0.395083    17.463404    5.830852    -7.628087    -10.480468    -10.404392    -0.677015    -1.317358    0.752248    -12.103612    -3.633961    -4.265998    2.420350    10.232153    3.650337    5.479189    -6.232219    -9.143472    -1.850144    -1.363334    2.004833    
-6.767368    81.459221    106.359245    -2.257561    -3.609561    -178.230057    -1.851718    -8.069949    3.615566    0.977482    1.380296    3.734451    -2.089651    10.583349    -5.770852    8.930341    1.564338    -4.743808    17.406862    0.495806    -1.411605    -20.013790    7.065166    -7.473754    7.608897    5.176724    -9.392790    -1.169104    5.870451    -6.946105    -15.452029    1.209166    -3.088291    9.657792    -9.701361    5.998041    -28.064945    -16.365828    50.389851    -5.233758    -3.339166    6.223732    2.946184    -7.451792    0.352632    -0.441706    17.265091    6.302776    -7.716878    -10.434621    -10.449504    -0.713107    -1.314685    0.792346    -12.011868    -3.794224    -3.999817    2.413653    10.256513    3.923687    5.391825    -6.227691    -9.106031    -1.868008    -1.330543    2.024097    
-6.631541    81.467751    106.352165    -2.267854    -3.577466    -178.812576    -2.083580    -8.077748    3.277639    1.148831    1.315565    3.411615    -1.885436    10.711442    -5.269894    8.700346    1.663904    -4.271724    17.688524    0.013183    -1.530971    -19.283239    5.750755    -7.811299    8.712154    4.154730    -9.924901    -1.166150    4.985578    -7.415514    -15.188322    1.615675    -3.317112    9.813950    -8.682319    5.571978    -27.085480    -15.764981    50.616776    -4.765315    -3.097979    5.786624    3.059677    -7.230382    0.489555    -0.486874    17.089754    6.746466    -7.803846    -10.396127    -10.485330    -0.749070    -1.312977    0.832304    -11.912264    -3.952691    -3.724976    2.409935    10.288397    4.192960    5.302254    -6.232778    -9.089718    -1.889907    -1.292803    2.047718    
-6.492204    81.473755    106.348465    -2.272153    -3.545956    -179.378708    -2.319618    -8.083570    2.936280    1.322127    1.255319    3.085767    -1.677870    10.833097    -4.778147    8.472491    1.775842    -3.809182    17.931126    -0.454986    -1.655065    -18.620604    4.401205    -8.203497    9.877598    2.931450    -10.533857    -1.090408    3.917224    -7.838640    -14.882347    2.030700    -3.536183    10.056239    -7.743582    5.170555    -26.127766    -15.198942    50.862259    -4.344728    -2.887673    5.379370    3.180099    -7.025682    0.631708    -0.530127    16.938927    7.161276    -7.889911    -10.364890    -10.514282    -0.784813    -1.312415    0.872016    -11.803440    -4.111149    -3.441534    2.408602    10.327970    4.458320    5.211460    -6.247971    -9.094849    -1.917054    -1.249147    2.077003    
-6.349705    81.477180    106.348503    -2.269713    -3.516232    -179.926712    -2.555748    -8.086427    2.593048    1.492252    1.198657    2.758146    -1.466706    10.942887    -4.297232    8.248143    1.903216    -3.357801    18.132212    -0.903894    -1.784757    -18.030865    3.012026    -8.653042    11.096766    1.495100    -11.226827    -0.939671    2.655730    -8.188759    -14.535482    2.451963    -3.747358    10.379896    -6.884139    4.791471    -25.204405    -14.661531    51.114193    -3.979758    -2.699031    5.005536    3.308532    -6.840470    0.781148    -0.571321    16.814564    7.545815    -7.974954    -10.340758    -10.538758    -0.820082    -1.312710    0.911205    -11.684568    -4.270112    -3.149802    2.409085    10.374813    4.718378    5.120069    -6.273069    -9.121771    -1.949597    -1.199509    2.112113    
-6.203082    81.478073    106.352600    -2.259755    -3.489129    179.539597    -2.790100    -8.085629    2.246485    1.655879    1.144429    2.427189    -1.249794    11.038047    -3.824177    8.027406    2.049126    -2.914761    18.291893    -1.333382    -1.923453    -17.514427    1.565763    -9.166059    12.369416    -0.175631    -12.020287    -0.712707    1.184345    -8.436817    -14.146701    2.878435    -3.953800    10.783731    -6.091440    4.427820    -24.315128    -14.145226    51.364975    -3.671079    -2.525217    4.662764    3.447206    -6.675380    0.940835    -0.610677    16.717178    7.903523    -8.060820    -10.323195    -10.561749    -0.855111    -1.314426    0.950128    -11.553597    -4.431897    -2.846818    2.410811    10.429326    4.973821    5.027337    -6.307529    -9.170527    -1.987400    -1.144028    2.152899    
-6.054394    81.476578    106.360603    -2.243864    -3.463912    179.025604    -3.018504    -8.078602    1.901427    1.806623    1.092588    2.097425    -1.028393    11.113151    -3.364368    7.813480    2.215115    -2.485185    18.407925    -1.736800    -2.071849    -17.081995    0.072911    -9.739491    13.669023    -2.066258    -12.918444    -0.412413    -0.480945    -8.548146    -13.722352    3.310804    -4.160565    11.262733    -5.376184    4.089455    -23.472324    -13.655128    51.604012    -3.420357    -2.366998    4.352206    3.593002    -6.530871    1.109008    -0.647639    16.647413    8.233491    -8.146667    -10.311591    -10.585328    -0.888889    -1.317436    0.987665    -11.413771    -4.593596    -2.534707    2.414143    10.490752    5.221274    4.933634    -6.349994    -9.240452    -2.029054    -1.084742    2.197839    
